<?xml version="1.0" encoding="utf-8"?>
<!-- Generator: Adobe Illustrator 25.0.0, SVG Export Plug-In . SVG Version: 6.00 Build 0)  -->
<svg version="1.1" id="Capa_1" xmlns="http://www.w3.org/2000/svg" xmlns:xlink="http://www.w3.org/1999/xlink" x="0px" y="0px"
	 width="500px" height="500px" viewBox="0 0 500 500" style="enable-background:new 0 0 500 500;" xml:space="preserve">
<style type="text/css">
	.st0{display:none;}
	.st1{fill:#1E40AF;}
</style>
<rect x="-24.9" y="-8.7" class="st0" width="546" height="512.6"/>
<g>
	<g>
		
			<rect x="265.4" y="274.8" transform="matrix(0.9869 -0.1612 0.1612 0.9869 -47.8537 47.3447)" class="st1" width="4.9" height="87.6"/>
	</g>
</g>
<g>
	<g>
		
			<rect x="180.2" y="144.5" transform="matrix(0.6919 -0.722 0.722 0.6919 -62.3987 182.5399)" class="st1" width="4.9" height="39.7"/>
	</g>
</g>
<g>
	<g>
		<path class="st1" d="M252.3,157.9l4.9-0.2v1.1l-4.9,0.2L252.3,157.9z M251.8,143.3l4.9-0.2l0.3,9.7l-4.9,0.2L251.8,143.3z
			 M251.4,128.7l4.9-0.2l0.3,9.7l-4.9,0.2L251.4,128.7z M250.9,114l4.9-0.2l0.3,9.7l-4.9,0.2L250.9,114z M250.5,99.4l4.9-0.2
			l0.3,9.7l-4.9,0.2L250.5,99.4z M250,84.8l4.9-0.2l0.3,9.7l-4.9,0.2L250,84.8z"/>
	</g>
</g>
<g>
	<g>
		
			<rect x="302.6" y="131.1" transform="matrix(0.7016 -0.7125 0.7125 0.7016 8.6497 287.7427)" class="st1" width="90.7" height="4.9"/>
	</g>
</g>
<g>
	<g>
		<polygon class="st1" points="405,251.9 405,247.9 327.9,247.6 327.9,251.6 		"/>
	</g>
</g>
<g>
	<g>
		
			<rect x="89.7" y="235.5" transform="matrix(0.9968 -7.963359e-02 7.963359e-02 0.9968 -18.5214 11.4581)" class="st1" width="89.4" height="4.9"/>
	</g>
</g>
<g>
	<g>
		<path class="st1" d="M253,91.4c-16,0-28.9-12.9-28.9-28.9S237,33.6,253,33.6s28.9,12.9,28.9,28.9C282,78.4,269,91.4,253,91.4z"/>
		<path class="st1" d="M278,343.3c20.7,0,37.5,16.8,37.5,37.5s-16.8,37.5-37.5,37.5s-37.5-16.8-37.5-37.5
			C240.4,360.1,257.2,343.3,278,343.3z"/>
		<ellipse class="st1" cx="374.1" cy="106.9" rx="15.6" ry="15.6"/>
		<ellipse class="st1" cx="165.9" cy="145.6" rx="15.6" ry="15.6"/>
		<path class="st1" d="M405,228.8c11.7,0,21.2,9.5,21.2,21.2c0,11.7-9.5,21.2-21.2,21.2s-21.2-9.5-21.2-21.2
			C383.7,238.3,393.2,228.8,405,228.8z"/>
		<circle class="st1" cx="258.4" cy="232" r="89.5"/>
	</g>
</g>
<ellipse transform="matrix(4.531444e-02 -0.999 0.999 4.531444e-02 -182.0722 297.2816)" class="st1" cx="64.5" cy="243.9" rx="34.2" ry="34.2"/>
</svg>
